<?xml version="1.0" standalone="no"?>
<!DOCTYPE svg PUBLIC "-//W3C//DTD SVG 20010904//EN"
 "http://www.w3.org/TR/2001/REC-SVG-20010904/DTD/svg10.dtd">
<svg version="1.0" xmlns="http://www.w3.org/2000/svg"
 width="545.000000pt" height="260.000000pt" viewBox="0 0 545.000000 260.000000"
 preserveAspectRatio="xMidYMid meet">

<g transform="translate(0.000000,260.000000) scale(0.100000,-0.100000)"
fill="#000000" stroke="none">
<path d="M3544 2579 c-10 -17 13 -36 27 -22 12 12 4 33 -11 33 -5 0 -12 -5
-16 -11z"/>
<path d="M1973 1535 c-116 -32 -213 -107 -260 -204 -25 -51 -28 -66 -28 -166
0 -104 2 -113 31 -170 39 -74 116 -148 189 -181 135 -62 342 -28 435 71 l23
25 -28 40 c-15 22 -30 40 -33 40 -2 0 -20 -14 -40 -31 -117 -103 -293 -98
-404 13 -55 55 -71 93 -76 180 -4 64 -1 84 17 122 50 102 154 166 270 166 69
0 111 -13 171 -53 l45 -29 32 37 32 37 -27 22 c-53 44 -102 67 -169 81 -83 18
-113 18 -180 0z"/>
<path d="M3614 1540 c-108 -22 -233 -119 -275 -216 -86 -192 -3 -412 191 -507
60 -30 72 -32 165 -32 97 0 104 2 177 38 145 71 212 179 213 342 0 82 -3 96
-33 157 -83 168 -255 254 -438 218z m188 -117 c64 -24 120 -74 153 -134 38
-71 42 -171 7 -236 -58 -111 -148 -167 -266 -166 -81 1 -130 18 -193 69 -61
50 -93 121 -93 208 0 86 20 134 79 193 76 76 214 105 313 66z"/>
<path d="M2530 1160 l0 -370 50 0 50 0 0 140 c0 166 -4 162 135 168 l90 4 50
-103 c75 -157 121 -199 220 -199 l45 0 0 50 0 50 -34 0 c-45 0 -86 41 -131
130 l-34 67 57 30 c76 38 107 91 107 183 0 80 -25 133 -81 173 -53 37 -123 47
-341 47 l-183 0 0 -370z m459 245 c27 -13 51 -58 51 -92 0 -30 -32 -81 -58
-93 -15 -7 -90 -16 -167 -20 -77 -4 -150 -11 -162 -15 -23 -7 -23 -7 -23 114
l0 121 165 0 c127 0 173 -4 194 -15z"/>
<path d="M4190 1523 c0 -5 56 -170 123 -368 l122 -360 55 -3 56 -3 26 83 c15
46 46 143 69 216 23 73 46 129 50 125 4 -4 37 -102 74 -216 l66 -208 56 3 57
3 116 365 116 365 -50 3 c-27 2 -52 0 -56 -5 -4 -4 -47 -129 -95 -278 l-87
-270 -39 110 c-21 61 -64 185 -95 278 l-56 167 -49 0 c-55 0 -56 -2 -34 -73
l14 -48 -66 -209 c-37 -116 -69 -210 -73 -210 -3 0 -48 121 -100 270 l-95 270
-52 0 c-29 0 -53 -3 -53 -7z"/>
<path d="M723 1357 l-103 -52 0 -47 c0 -27 2 -48 5 -48 3 0 32 14 65 30 l60
30 0 -390 0 -390 40 0 40 0 0 445 c0 245 2 445 5 445 3 0 46 -20 95 -45 l90
-45 0 -54 c0 -39 4 -55 15 -60 12 -4 15 6 15 62 l0 67 -105 53 c-58 28 -109
52 -113 51 -4 0 -53 -23 -109 -52z"/>
<path d="M598 1149 l-98 -49 0 -61 c0 -74 23 -79 28 -6 l3 47 69 35 c38 19 72
35 75 35 3 0 5 -148 5 -330 0 -287 2 -330 15 -330 13 0 15 46 15 355 0 195 -3
355 -7 354 -5 0 -52 -22 -105 -50z"/>
<path d="M870 845 l0 -355 40 0 40 0 0 280 c0 154 2 280 5 280 3 0 32 -14 65
-30 l60 -30 0 55 0 55 -100 50 c-55 27 -102 50 -105 50 -3 0 -5 -160 -5 -355z"/>
<path d="M518 952 l-88 -47 -2 -214 -3 -215 -25 -8 c-19 -6 -16 -6 10 -2 19 2
70 8 113 11 44 3 81 11 83 17 2 6 3 122 2 258 l-3 247 -87 -47z"/>
<path d="M990 740 c0 -216 2 -250 15 -250 13 0 15 32 15 225 0 124 2 225 5
225 3 0 37 -16 75 -35 l70 -35 0 -199 c0 -198 0 -199 23 -205 12 -3 31 -5 42
-5 16 1 15 2 -5 8 l-25 7 -3 205 -2 205 -105 52 -105 52 0 -250z"/>
<path d="M1040 815 c0 -8 9 -15 20 -15 11 0 20 7 20 15 0 8 -9 15 -20 15 -11
0 -20 -7 -20 -15z"/>
<path d="M1100 815 c0 -8 9 -15 20 -15 11 0 20 7 20 15 0 8 -9 15 -20 15 -11
0 -20 -7 -20 -15z"/>
<path d="M1040 760 c0 -13 7 -20 20 -20 13 0 20 7 20 20 0 13 -7 20 -20 20
-13 0 -20 -7 -20 -20z"/>
<path d="M1100 760 c0 -13 7 -20 20 -20 13 0 20 7 20 20 0 13 -7 20 -20 20
-13 0 -20 -7 -20 -20z"/>
<path d="M4963 630 c-64 -20 -101 -97 -73 -151 16 -30 64 -49 122 -49 95 0
139 -45 94 -97 -21 -24 -31 -27 -83 -28 -50 0 -65 4 -95 27 -32 25 -37 26 -49
12 -18 -22 -3 -43 51 -71 90 -48 213 -16 238 62 28 85 -13 132 -123 142 -84 7
-105 16 -105 47 0 55 92 79 157 41 26 -15 34 -16 47 -6 23 19 20 25 -23 49
-46 26 -113 35 -158 22z"/>
<path d="M1677 623 c-4 -3 -7 -87 -7 -185 l0 -178 30 0 30 0 0 74 c0 85 1 86
91 86 57 0 59 1 59 26 l0 26 -75 -4 -75 -3 0 57 0 58 100 0 100 0 0 25 0 25
-123 0 c-68 0 -127 -3 -130 -7z"/>
<path d="M2022 481 l3 -150 29 -30 c38 -39 85 -54 151 -49 73 6 118 41 134
102 6 25 11 97 11 160 0 116 0 116 -24 116 -24 0 -24 0 -28 -135 -3 -130 -4
-135 -29 -161 -49 -49 -159 -40 -189 15 -5 11 -10 78 -10 150 l0 131 -26 0
-25 0 3 -149z"/>
<path d="M2440 611 c5 -11 15 -23 20 -26 6 -4 10 -71 10 -166 l0 -159 25 0 24
0 3 124 3 123 102 -123 c82 -98 108 -124 128 -124 l25 0 0 185 0 185 -25 0
-24 0 -3 -141 -3 -141 -118 141 c-103 123 -122 141 -148 141 -26 0 -29 -2 -19
-19z"/>
<path d="M2873 615 c4 -9 7 -20 7 -25 0 -4 9 -10 20 -13 19 -5 20 -14 20 -161
l0 -156 94 0 c80 0 98 3 127 23 111 75 108 254 -5 318 -35 20 -58 24 -155 27
-104 4 -113 3 -108 -13z m246 -63 c74 -54 69 -187 -9 -227 -16 -8 -54 -15 -85
-15 l-55 0 0 136 0 137 62 -6 c37 -3 71 -13 87 -25z"/>
<path d="M3320 445 c0 -178 1 -185 20 -185 19 0 20 7 20 185 0 178 -1 185 -20
185 -19 0 -20 -7 -20 -185z"/>
<path d="M3469 601 c19 -26 21 -43 21 -185 l0 -156 25 0 24 0 3 126 3 125 104
-125 c89 -108 108 -126 132 -126 l29 0 0 185 0 185 -25 0 -25 0 0 -140 c0 -77
-3 -140 -7 -140 -5 0 -60 63 -123 139 -105 127 -118 140 -148 140 l-33 1 20
-29z"/>
<path d="M3890 625 c0 -17 22 -45 35 -45 13 0 15 -26 15 -160 l0 -160 91 0
c50 0 100 5 112 11 100 51 134 186 72 280 -37 56 -82 73 -212 77 -62 2 -113 1
-113 -3z m248 -69 c20 -10 36 -30 47 -60 23 -60 13 -110 -30 -153 -31 -31 -38
-33 -99 -33 l-66 0 0 128 c0 71 3 132 8 136 11 12 106 0 140 -18z"/>
<path d="M4470 445 l0 -185 25 0 c24 0 25 2 25 65 0 74 10 85 79 85 40 0 42
-2 71 -59 33 -66 61 -91 102 -91 23 0 28 4 28 25 0 18 -5 25 -18 25 -37 0
-100 99 -70 109 7 2 25 17 40 32 21 20 28 37 28 66 0 85 -51 113 -205 113
l-105 0 0 -185z m230 122 c19 -10 25 -20 25 -47 0 -45 -24 -56 -127 -62 l-78
-5 0 57 c0 31 3 60 7 63 11 12 147 7 173 -6z"/>
<path d="M515 446 c-93 -13 -239 -46 -232 -52 2 -2 51 4 108 13 146 24 695 25
849 1 57 -9 106 -15 108 -14 6 7 -139 38 -238 52 -128 17 -469 17 -595 0z"/>
</g>
</svg>
