<?xml version="1.0" standalone="no"?>
<!DOCTYPE svg PUBLIC "-//W3C//DTD SVG 20010904//EN"
 "http://www.w3.org/TR/2001/REC-SVG-20010904/DTD/svg10.dtd">
<svg version="1.0" xmlns="http://www.w3.org/2000/svg"
 width="483.000000pt" height="156.000000pt" viewBox="0 0 483.000000 156.000000"
 preserveAspectRatio="xMidYMid meet">

<g transform="translate(0.000000,156.000000) scale(0.100000,-0.100000)"
fill="#000000" stroke="none">
<path d="M635 1505 c-275 -61 -497 -272 -570 -540 -23 -84 -30 -242 -15 -329
22 -130 92 -275 178 -371 95 -106 191 -168 335 -217 85 -29 102 -32 227 -32
148 -1 225 16 340 74 277 140 449 457 411 760 -42 330 -276 587 -600 656 -82
17 -226 17 -306 -1z m310 -90 c33 -8 98 -34 145 -57 110 -54 239 -179 287
-278 55 -115 66 -158 70 -285 7 -177 -31 -299 -132 -431 -126 -163 -315 -255
-524 -256 -120 0 -171 12 -290 69 -164 78 -287 222 -343 403 -33 106 -33 273
0 380 72 231 256 401 492 455 77 18 224 18 295 0z"/>
<path d="M632 1390 c-231 -61 -420 -257 -467 -485 -60 -288 81 -582 341 -713
144 -73 330 -87 481 -38 162 53 300 171 374 321 58 119 72 187 67 325 -6 128
-28 203 -92 309 -142 233 -437 351 -704 281z m256 -206 c29 -20 62 -85 62
-122 0 -20 -9 -35 -30 -50 -16 -12 -34 -22 -40 -22 -13 0 -13 27 0 35 6 3 10
22 10 41 0 28 -4 34 -20 34 -67 0 -159 -93 -228 -230 -51 -100 -68 -149 -88
-249 -18 -90 -14 -155 9 -179 21 -20 88 -17 134 7 53 26 193 140 278 226 95
95 101 99 109 80 3 -9 2 -13 -3 -10 -5 3 -12 -3 -16 -14 -5 -16 -16 -32 -55
-79 -6 -7 -8 -16 -5 -21 3 -5 0 -13 -6 -17 -7 -4 -9 -3 -5 4 15 25 -13 19 -32
-8 -28 -38 -28 -48 1 -24 12 10 9 4 -7 -14 -17 -17 -35 -32 -42 -32 -7 0 -16
-5 -20 -12 -5 -7 -2 -9 7 -4 8 4 5 0 -5 -8 -11 -9 -26 -16 -35 -16 -8 0 -11
-3 -8 -7 4 -3 1 -13 -6 -22 -7 -9 4 -6 28 9 l40 23 -30 -32 c-18 -19 -35 -29
-44 -26 -9 3 -12 3 -8 -1 14 -15 -94 -85 -166 -108 -40 -13 -126 49 -153 110
-18 43 -35 155 -25 168 4 6 8 28 8 49 1 47 23 138 32 133 4 -3 7 5 7 17 1 30
31 97 43 97 6 0 8 6 5 13 -2 7 9 27 25 45 16 18 28 41 27 50 0 9 4 16 11 15 7
-2 10 3 7 10 -2 7 6 22 18 33 23 19 23 19 8 -1 -14 -20 -14 -20 7 -1 13 10 20
23 16 29 -3 5 -2 7 4 4 6 -4 31 16 55 43 50 55 84 64 126 34z m82 -627 c0 -2
-10 -12 -22 -23 l-23 -19 19 23 c18 21 26 27 26 19z"/>
<path d="M765 429 c-4 -5 -3 -9 1 -9 4 0 -1 -7 -12 -16 -18 -14 -18 -15 4 -4
13 6 20 16 16 22 -5 7 -2 9 9 5 9 -3 18 -3 21 1 3 4 -4 8 -14 9 -11 1 -22 -2
-25 -8z"/>
<path d="M1900 1095 c-30 -30 -54 -59 -53 -64 1 -5 -7 -17 -17 -26 -11 -10
-20 -23 -20 -28 0 -6 -9 -30 -21 -53 -29 -61 -43 -162 -29 -213 14 -54 58
-103 91 -104 14 0 41 8 60 17 39 19 113 81 87 72 -24 -7 -23 -1 4 26 l21 21
-5 -21 c-4 -14 2 -30 20 -49 l26 -28 7 45 c8 55 54 135 86 149 28 13 28 14 3
-40 -25 -56 -25 -80 1 -113 28 -35 60 -33 99 7 80 80 68 169 -22 165 -22 -1
-43 5 -53 15 -9 10 -22 17 -28 17 -20 0 -77 -39 -77 -52 0 -7 -7 -2 -16 10
-23 33 -34 27 -34 -17 0 -35 -6 -45 -52 -86 -71 -63 -132 -91 -166 -76 -24 11
-25 14 -19 84 8 103 70 241 134 299 22 20 74 41 81 33 4 -3 1 -19 -5 -35 -13
-34 -5 -38 27 -12 25 21 22 44 -11 86 -31 39 -58 33 -119 -29z m385 -275 c14
-22 -67 -120 -98 -120 -15 0 -18 5 -13 25 14 55 27 75 58 89 41 18 45 18 53 6z"/>
<path d="M2855 1130 c-209 -55 -231 -66 -201 -99 16 -18 20 -18 33 -6 15 16
43 20 43 8 -1 -28 -52 -198 -61 -204 -6 -4 -9 -12 -5 -18 4 -6 2 -46 -4 -89
-12 -86 -8 -107 22 -123 19 -10 20 -9 16 19 -2 17 1 63 6 103 l11 72 67 22
c37 12 74 30 83 39 15 15 14 16 -17 16 -18 0 -50 -5 -71 -11 -22 -6 -41 -8
-44 -6 -2 3 8 51 24 107 27 97 30 102 63 116 43 19 161 44 201 44 20 0 29 4
27 13 -7 19 -115 18 -193 -3z"/>
<path d="M4185 1136 c-97 -31 -195 -99 -227 -159 -14 -25 -18 -27 -18 -11 0
23 -18 44 -38 44 -7 0 -12 -8 -11 -17 1 -10 1 -39 0 -65 -1 -47 -1 -47 -38
-50 -35 -3 -40 -8 -65 -57 -34 -67 -35 -101 -5 -129 29 -28 62 -28 81 -1 14
21 15 21 18 -12 2 -25 8 -35 23 -37 19 -2 20 4 21 113 1 64 5 132 9 151 l6 35
20 -25 c11 -14 28 -26 37 -26 12 0 13 3 4 12 -26 26 -11 53 64 119 16 14 38
28 48 32 17 7 18 4 12 -30 -18 -109 -41 -305 -41 -358 0 -47 3 -60 16 -63 14
-3 18 11 25 80 8 71 11 83 27 80 10 -2 30 5 45 16 15 10 32 22 39 26 7 4 35
-27 74 -85 78 -114 90 -122 157 -109 92 17 266 128 302 192 14 25 13 31 -4 63
-25 46 -53 52 -152 32 -111 -23 -124 -22 -124 6 0 63 137 180 212 181 36 1 43
-2 48 -23 5 -21 7 -22 19 -8 29 35 -18 91 -75 89 -47 -2 -109 -39 -178 -105
-66 -65 -80 -110 -50 -167 18 -33 22 -35 69 -34 28 1 83 5 123 11 86 11 92 2
32 -49 -68 -56 -197 -128 -230 -128 -13 0 -20 -7 -20 -20 0 -36 -34 -3 -100
96 l-61 93 45 41 c64 59 106 125 100 157 -17 92 -122 136 -239 99z m190 -57
c20 -19 20 -19 -3 -63 -35 -66 -96 -120 -135 -121 -27 0 -32 -3 -30 -22 2 -14
-7 -29 -26 -42 -36 -26 -44 -26 -37 -3 3 9 8 40 11 67 10 91 26 180 33 187 14
12 97 26 132 22 19 -3 44 -14 55 -25z m-522 -316 c-29 -59 -48 -70 -49 -30 -1
33 16 69 45 96 38 36 40 6 4 -66z"/>
<path d="M3499 1015 c-18 -31 -22 -33 -36 -20 -25 25 -30 17 -38 -50 -6 -63
-7 -65 -35 -65 -37 0 -73 -43 -89 -105 -10 -40 -9 -51 4 -72 24 -37 56 -45 82
-21 l21 20 4 -28 c2 -21 9 -30 26 -32 18 -3 22 1 22 25 1 24 2 25 11 11 5 -10
18 -18 27 -18 16 0 18 12 17 113 l0 112 -28 0 c-19 -1 -26 3 -22 13 3 7 5 18
5 23 0 5 10 8 21 6 17 -2 24 7 35 43 26 84 10 109 -27 45z m-110 -244 c-11
-28 -27 -56 -35 -62 -11 -9 -14 -6 -14 20 0 41 23 96 47 109 27 16 28 -7 2
-67z m78 -8 c-2 -16 -4 -3 -4 27 0 30 2 43 4 28 2 -16 2 -40 0 -55z"/>
<path d="M2520 808 l-40 -83 5 56 c4 43 1 60 -10 69 -19 16 -17 18 -55 -55
l-31 -60 7 45 c11 73 10 84 -7 88 -11 2 -19 -15 -32 -70 -20 -86 -21 -110 -5
-126 24 -24 45 -13 63 34 l17 45 17 -33 c24 -49 60 -46 76 7 6 22 24 63 38 92
31 60 33 73 12 73 -9 0 -31 -33 -55 -82z"/>
<path d="M3003 853 c-7 -16 -30 -55 -50 -88 -30 -47 -39 -55 -41 -39 -2 11 3
38 10 60 17 48 12 76 -10 72 -21 -4 -48 -103 -38 -141 3 -15 16 -37 27 -48 24
-24 40 -15 66 34 l15 30 11 -23 c22 -44 32 -31 44 57 9 63 9 90 1 100 -15 19
-22 16 -35 -14z"/>
<path d="M3090 772 c0 -67 4 -93 15 -102 23 -19 41 -6 48 34 3 19 18 57 34 83
l28 48 5 -75 c4 -67 7 -75 25 -75 17 0 20 8 23 49 6 87 -16 126 -69 126 -22 0
-32 -7 -41 -25 l-11 -25 -11 22 c-6 13 -19 24 -29 26 -15 3 -17 -7 -17 -86z"/>
<path d="M3560 766 c0 -87 2 -95 21 -101 25 -8 22 -11 38 45 15 52 48 110 63
110 7 0 9 -20 5 -56 -7 -66 -2 -84 24 -84 17 0 19 8 19 74 0 66 -3 77 -22 90
-36 25 -66 20 -87 -15 l-19 -32 -4 29 c-2 18 -10 30 -20 32 -16 3 -18 -6 -18
-92z"/>
<path d="M1750 430 c0 -47 3 -60 15 -60 12 0 15 13 15 60 0 47 -3 60 -15 60
-12 0 -15 -13 -15 -60z"/>
<path d="M1850 430 c0 -46 3 -60 14 -60 10 0 16 13 18 38 l3 37 22 -37 c34
-58 53 -50 53 22 0 47 -3 60 -15 60 -11 0 -15 -11 -15 -37 l0 -38 -25 38 c-39
56 -55 49 -55 -23z"/>
<path d="M2043 430 c14 -37 28 -60 37 -60 9 0 23 23 37 60 17 47 19 60 8 60
-8 0 -20 -18 -26 -40 -7 -22 -15 -40 -19 -40 -4 0 -12 18 -19 40 -6 22 -18 40
-26 40 -11 0 -9 -13 8 -60z"/>
<path d="M2200 430 c0 -47 3 -60 15 -60 12 0 15 13 15 60 0 47 -3 60 -15 60
-12 0 -15 -13 -15 -60z"/>
<path d="M2300 430 l0 -60 35 0 c19 0 35 5 35 10 0 6 -9 10 -20 10 -11 0 -20
7 -20 15 0 8 9 15 20 15 11 0 20 5 20 10 0 6 -9 10 -20 10 -11 0 -20 7 -20 15
0 8 9 15 20 15 11 0 20 5 20 10 0 6 -16 10 -35 10 l-35 0 0 -60z"/>
<path d="M2440 431 c0 -48 3 -61 15 -61 10 0 15 10 15 28 l1 27 17 -27 c9 -16
22 -28 29 -28 17 0 16 6 -3 35 -11 17 -12 25 -4 25 7 0 10 11 8 28 -3 23 -8
27 -40 30 l-38 3 0 -60z m52 24 c0 -5 -5 -11 -11 -13 -6 -2 -11 4 -11 13 0 9
5 15 11 13 6 -2 11 -8 11 -13z"/>
<path d="M2590 480 c0 -5 5 -10 10 -10 6 0 10 -22 10 -50 0 -38 4 -50 15 -50
11 0 15 12 15 50 0 38 4 50 15 50 8 0 15 5 15 10 0 6 -18 10 -40 10 -22 0 -40
-4 -40 -10z"/>
<path d="M2730 430 l0 -60 35 0 c19 0 35 5 35 10 0 6 -9 10 -20 10 -11 0 -20
7 -20 15 0 8 9 15 20 15 11 0 20 5 20 10 0 6 -9 10 -20 10 -11 0 -20 7 -20 15
0 8 9 15 20 15 11 0 20 5 20 10 0 6 -16 10 -35 10 l-35 0 0 -60z"/>
<path d="M2967 483 c-4 -3 -7 -16 -7 -29 0 -16 9 -25 30 -33 17 -5 30 -15 30
-20 0 -14 -23 -14 -37 0 -17 17 -37 1 -22 -17 17 -21 66 -18 79 5 11 22 -5 45
-41 56 -15 5 -18 10 -10 18 7 7 14 7 25 -2 16 -13 32 1 21 19 -7 11 -58 14
-68 3z"/>
<path d="M3110 430 l0 -60 35 0 c19 0 35 5 35 10 0 6 -9 10 -20 10 -11 0 -20
7 -20 15 0 8 9 15 20 15 11 0 20 5 20 10 0 6 -9 10 -20 10 -11 0 -20 7 -20 15
0 8 9 15 20 15 11 0 20 5 20 10 0 6 -16 10 -35 10 l-35 0 0 -60z"/>
<path d="M3266 474 c-20 -20 -21 -68 -1 -88 10 -10 33 -15 61 -14 44 1 45 1
42 32 -2 25 -8 32 -30 34 -20 2 -28 -1 -28 -12 0 -9 8 -16 18 -17 14 0 13 -2
-5 -11 -42 -20 -73 33 -37 63 12 10 20 10 35 1 25 -16 45 -6 28 14 -15 19 -64
18 -83 -2z"/>
<path d="M3430 449 c0 -56 14 -79 50 -79 36 0 50 23 50 79 0 29 -4 41 -14 41
-11 0 -16 -14 -18 -47 -2 -35 -7 -48 -18 -48 -11 0 -16 13 -18 48 -2 33 -7 47
-18 47 -10 0 -14 -12 -14 -41z"/>
<path d="M3600 431 c0 -48 3 -61 15 -61 10 0 15 10 15 28 l1 27 15 -27 c8 -16
22 -28 30 -28 15 0 14 3 -1 26 -13 20 -14 28 -5 34 6 4 10 18 8 31 -2 20 -10
25 -40 27 l-38 3 0 -60z m52 24 c0 -5 -5 -11 -11 -13 -6 -2 -11 4 -11 13 0 9
5 15 11 13 6 -2 11 -8 11 -13z"/>
<path d="M3767 472 c-36 -40 -9 -102 45 -102 51 0 78 69 40 103 -24 22 -65 21
-85 -1z m59 -10 c19 -13 23 -41 8 -57 -17 -17 -24 -18 -40 -7 -19 13 -23 41
-8 57 17 17 24 18 40 7z"/>
</g>
</svg>
