<?xml version="1.0" standalone="no"?>
<!DOCTYPE svg PUBLIC "-//W3C//DTD SVG 20010904//EN"
 "http://www.w3.org/TR/2001/REC-SVG-20010904/DTD/svg10.dtd">
<svg version="1.0" xmlns="http://www.w3.org/2000/svg"
 width="128.000000pt" height="128.000000pt" viewBox="0 0 128.000000 128.000000"
 preserveAspectRatio="xMidYMid meet">

<g transform="translate(0.000000,128.000000) scale(0.100000,-0.100000)"
fill="#000000" stroke="none">
<path d="M322 1060 c-84 -20 -162 -116 -162 -198 0 -123 99 -222 222 -222 51
0 135 46 163 89 62 96 54 193 -24 271 -60 60 -121 79 -199 60z"/>
<path d="M802 1060 c-84 -20 -162 -116 -162 -198 0 -123 99 -222 222 -222 51
0 135 46 163 89 62 96 54 193 -24 271 -60 60 -121 79 -199 60z"/>
<path d="M287 580 c-128 -33 -217 -136 -233 -272 -6 -48 -4 -58 15 -77 19 -19
32 -21 167 -21 l146 0 -6 34 c-8 43 16 160 43 215 12 22 35 56 51 75 27 30 28
35 13 41 -30 12 -156 15 -196 5z"/>
<path d="M724 577 c-130 -34 -227 -146 -241 -281 -9 -88 -18 -86 374 -86 325
0 334 1 354 21 18 18 20 28 14 67 -16 115 -88 212 -187 257 -53 24 -79 29
-163 31 -60 2 -121 -2 -151 -9z"/>
</g>
</svg>
